<?xml version="1.0" encoding="utf-8"?>
<!-- Generator: Adobe Illustrator 25.1.0, SVG Export Plug-In . SVG Version: 6.00 Build 0)  -->
<svg version="1.1" id="Layer_1" xmlns="http://www.w3.org/2000/svg" xmlns:xlink="http://www.w3.org/1999/xlink" x="0px" y="0px"
	 viewBox="0 0 512 512" style="enable-background:new 0 0 512 512;" xml:space="preserve">
<style type="text/css">
	.st0{fill:#4253B8;}
	.st1{fill:#727585;}
	.st2{fill:#FFFFFF;}
	.st3{fill:#EBEBEB;}
	.st4{font-family:'Rockwell-ExtraBold';}
	.st5{font-size:115.8096px;}
	.st6{letter-spacing:5.6;}
	.st7{fill:none;}
</style>
<g id="Guides_to_delete">
	<g>
		<polygon class="st0" points="107.1,470.7 74,99.3 437.7,99.3 404.5,470.8 255.8,512 		"/>
		<polygon class="st1" points="255.9,129.7 255.9,480.4 376.2,447.1 404.5,129.7 		"/>
		<polygon class="st2" points="141.8,175.2 154,313 311.9,313 306.6,372.1 255.8,385.8 205.1,372.1 201.7,334.1 155.9,334.1 
			162.5,407.3 255.8,433.2 349.2,407.3 361.7,267.4 195.7,267.4 191.5,220.8 365.7,220.8 365.9,220.8 370,175.2 		"/>
		<g>
			<polygon class="st3" points="255.9,175.2 141.8,175.2 154,313 255.9,313 255.9,267.4 195.7,267.4 191.5,220.8 255.9,220.8 			"/>
			<polygon class="st3" points="255.9,385.8 255.8,385.8 205.1,372.1 201.7,334.1 155.9,334.1 162.5,407.3 255.8,433.2 255.9,433.2 
							"/>
		</g>
	</g>
</g>
<text transform="matrix(1.0647 0 0 1 77.5452 87.2075)" class="st4 st5 st6">AJLP</text>
<rect x="115.9" y="12.8" class="st7" width="2.1" height="0"/>
</svg>
